<mxfile host="Electron" modified="2023-12-10T12:56:09.816Z" agent="Mozilla/5.0 (Macintosh; Intel Mac OS X 10_15_7) AppleWebKit/537.36 (KHTML, like Gecko) draw.io/22.0.3 Chrome/114.0.5735.289 Electron/25.8.4 Safari/537.36" etag="478IhP9mCXc2MuqvptUt" version="22.0.3" type="device">
  <diagram name="Page-1" id="uXnFIVl1xM6Y5oIQIp3p">
    <mxGraphModel dx="545" dy="435" grid="1" gridSize="10" guides="1" tooltips="1" connect="1" arrows="1" fold="1" page="1" pageScale="1" pageWidth="827" pageHeight="1169" math="0" shadow="0">
      <root>
        <mxCell id="0" />
        <mxCell id="1" parent="0" />
        <mxCell id="qE_79AIcoYg8Ee0vPHac-31" value="" style="edgeStyle=orthogonalEdgeStyle;rounded=0;orthogonalLoop=1;jettySize=auto;html=1;" edge="1" parent="1" source="qE_79AIcoYg8Ee0vPHac-1" target="qE_79AIcoYg8Ee0vPHac-29">
          <mxGeometry relative="1" as="geometry" />
        </mxCell>
        <mxCell id="qE_79AIcoYg8Ee0vPHac-1" value="START" style="strokeWidth=2;html=1;shape=mxgraph.flowchart.start_1;whiteSpace=wrap;" vertex="1" parent="1">
          <mxGeometry x="354" y="50" width="120" height="60" as="geometry" />
        </mxCell>
        <mxCell id="qE_79AIcoYg8Ee0vPHac-11" value="" style="edgeStyle=orthogonalEdgeStyle;rounded=0;orthogonalLoop=1;jettySize=auto;html=1;" edge="1" parent="1" source="qE_79AIcoYg8Ee0vPHac-3" target="qE_79AIcoYg8Ee0vPHac-4">
          <mxGeometry relative="1" as="geometry" />
        </mxCell>
        <mxCell id="qE_79AIcoYg8Ee0vPHac-12" value="False" style="edgeLabel;html=1;align=center;verticalAlign=middle;resizable=0;points=[];" vertex="1" connectable="0" parent="qE_79AIcoYg8Ee0vPHac-11">
          <mxGeometry x="-0.2556" y="-3" relative="1" as="geometry">
            <mxPoint x="2" y="-4" as="offset" />
          </mxGeometry>
        </mxCell>
        <mxCell id="qE_79AIcoYg8Ee0vPHac-3" value="if input == 0&lt;br&gt;break" style="strokeWidth=2;html=1;shape=mxgraph.flowchart.decision;whiteSpace=wrap;" vertex="1" parent="1">
          <mxGeometry x="210" y="360" width="100" height="100" as="geometry" />
        </mxCell>
        <mxCell id="qE_79AIcoYg8Ee0vPHac-27" value="" style="edgeStyle=orthogonalEdgeStyle;rounded=0;orthogonalLoop=1;jettySize=auto;html=1;" edge="1" parent="1" source="qE_79AIcoYg8Ee0vPHac-4" target="qE_79AIcoYg8Ee0vPHac-26">
          <mxGeometry relative="1" as="geometry" />
        </mxCell>
        <mxCell id="qE_79AIcoYg8Ee0vPHac-28" value="False" style="edgeLabel;html=1;align=center;verticalAlign=middle;resizable=0;points=[];" vertex="1" connectable="0" parent="qE_79AIcoYg8Ee0vPHac-27">
          <mxGeometry x="-0.075" relative="1" as="geometry">
            <mxPoint y="-4" as="offset" />
          </mxGeometry>
        </mxCell>
        <mxCell id="qE_79AIcoYg8Ee0vPHac-40" value="" style="edgeStyle=orthogonalEdgeStyle;rounded=0;orthogonalLoop=1;jettySize=auto;html=1;entryX=0;entryY=0.5;entryDx=0;entryDy=0;" edge="1" parent="1" source="qE_79AIcoYg8Ee0vPHac-4" target="qE_79AIcoYg8Ee0vPHac-48">
          <mxGeometry relative="1" as="geometry">
            <mxPoint x="520.8" y="410" as="targetPoint" />
          </mxGeometry>
        </mxCell>
        <mxCell id="qE_79AIcoYg8Ee0vPHac-41" value="True" style="edgeLabel;html=1;align=center;verticalAlign=middle;resizable=0;points=[];" vertex="1" connectable="0" parent="qE_79AIcoYg8Ee0vPHac-40">
          <mxGeometry x="-0.242" y="2" relative="1" as="geometry">
            <mxPoint x="2" y="1" as="offset" />
          </mxGeometry>
        </mxCell>
        <mxCell id="qE_79AIcoYg8Ee0vPHac-4" value="if input &amp;lt;= 0&lt;br&gt;&lt;span style=&quot;&quot;&gt;continue&lt;br&gt;&lt;/span&gt;" style="strokeWidth=2;html=1;shape=mxgraph.flowchart.decision;whiteSpace=wrap;fontColor=default;labelBackgroundColor=none;align=center;" vertex="1" parent="1">
          <mxGeometry x="364" y="360" width="100" height="100" as="geometry" />
        </mxCell>
        <mxCell id="qE_79AIcoYg8Ee0vPHac-5" value="END" style="strokeWidth=2;html=1;shape=mxgraph.flowchart.start_1;whiteSpace=wrap;" vertex="1" parent="1">
          <mxGeometry x="354" y="700" width="120" height="60" as="geometry" />
        </mxCell>
        <mxCell id="qE_79AIcoYg8Ee0vPHac-18" style="edgeStyle=orthogonalEdgeStyle;rounded=0;orthogonalLoop=1;jettySize=auto;html=1;entryX=1;entryY=0.5;entryDx=0;entryDy=0;exitX=1;exitY=0.5;exitDx=0;exitDy=0;" edge="1" parent="1" source="qE_79AIcoYg8Ee0vPHac-48" target="qE_79AIcoYg8Ee0vPHac-15">
          <mxGeometry relative="1" as="geometry">
            <mxPoint x="613.1999999999998" y="410" as="sourcePoint" />
            <Array as="points">
              <mxPoint x="650" y="410" />
              <mxPoint x="650" y="295" />
            </Array>
          </mxGeometry>
        </mxCell>
        <mxCell id="qE_79AIcoYg8Ee0vPHac-15" value="&lt;div style=&quot;border-color: var(--border-color); font-family: Menlo, Monaco, &amp;quot;Courier New&amp;quot;, monospace; line-height: 18px;&quot;&gt;&lt;font style=&quot;font-size: 12px;&quot;&gt;prompt:&lt;/font&gt;&lt;/div&gt;&lt;div style=&quot;border-color: var(--border-color); font-family: Menlo, Monaco, &amp;quot;Courier New&amp;quot;, monospace; line-height: 18px;&quot;&gt;&lt;font style=&quot;font-size: 12px;&quot;&gt;&quot;Enter an integer&lt;/font&gt;&lt;/div&gt;&lt;div style=&quot;border-color: var(--border-color); font-family: Menlo, Monaco, &amp;quot;Courier New&amp;quot;, monospace; line-height: 18px;&quot;&gt;&lt;font style=&quot;font-size: 12px;&quot;&gt;value (enter 0 to terminate)&quot;&lt;/font&gt;&lt;/div&gt;" style="shape=parallelogram;html=1;strokeWidth=2;perimeter=parallelogramPerimeter;whiteSpace=wrap;rounded=1;arcSize=12;size=0.23;align=center;verticalAlign=middle;labelPosition=center;verticalLabelPosition=middle;" vertex="1" parent="1">
          <mxGeometry x="321" y="255" width="186" height="80" as="geometry" />
        </mxCell>
        <mxCell id="qE_79AIcoYg8Ee0vPHac-37" value="" style="edgeStyle=orthogonalEdgeStyle;rounded=0;orthogonalLoop=1;jettySize=auto;html=1;" edge="1" parent="1" source="qE_79AIcoYg8Ee0vPHac-26" target="qE_79AIcoYg8Ee0vPHac-36">
          <mxGeometry relative="1" as="geometry" />
        </mxCell>
        <mxCell id="qE_79AIcoYg8Ee0vPHac-26" value="update&amp;nbsp;&lt;br&gt;sum &amp;amp; count" style="shape=parallelogram;html=1;strokeWidth=2;perimeter=parallelogramPerimeter;whiteSpace=wrap;rounded=1;arcSize=12;size=0.23;align=center;" vertex="1" parent="1">
          <mxGeometry x="346" y="500" width="136" height="60" as="geometry" />
        </mxCell>
        <mxCell id="qE_79AIcoYg8Ee0vPHac-30" value="" style="edgeStyle=orthogonalEdgeStyle;rounded=0;orthogonalLoop=1;jettySize=auto;html=1;" edge="1" parent="1" source="qE_79AIcoYg8Ee0vPHac-29" target="qE_79AIcoYg8Ee0vPHac-15">
          <mxGeometry relative="1" as="geometry" />
        </mxCell>
        <mxCell id="qE_79AIcoYg8Ee0vPHac-29" value="Initialize variable&lt;br&gt;sum &amp;amp; count" style="rounded=1;whiteSpace=wrap;html=1;absoluteArcSize=1;arcSize=14;strokeWidth=2;" vertex="1" parent="1">
          <mxGeometry x="364" y="150" width="100" height="70" as="geometry" />
        </mxCell>
        <mxCell id="qE_79AIcoYg8Ee0vPHac-38" style="edgeStyle=orthogonalEdgeStyle;rounded=0;orthogonalLoop=1;jettySize=auto;html=1;entryX=1;entryY=0.5;entryDx=0;entryDy=0;exitX=1;exitY=0.5;exitDx=0;exitDy=0;" edge="1" parent="1" source="qE_79AIcoYg8Ee0vPHac-36" target="qE_79AIcoYg8Ee0vPHac-15">
          <mxGeometry relative="1" as="geometry">
            <Array as="points">
              <mxPoint x="650" y="630" />
              <mxPoint x="650" y="295" />
            </Array>
          </mxGeometry>
        </mxCell>
        <mxCell id="qE_79AIcoYg8Ee0vPHac-39" value="Loop again" style="edgeLabel;html=1;align=center;verticalAlign=middle;resizable=0;points=[];fontSize=11;" vertex="1" connectable="0" parent="qE_79AIcoYg8Ee0vPHac-38">
          <mxGeometry x="-0.8052" y="-2" relative="1" as="geometry">
            <mxPoint y="-3" as="offset" />
          </mxGeometry>
        </mxCell>
        <mxCell id="qE_79AIcoYg8Ee0vPHac-36" value="Display result&lt;br style=&quot;border-color: var(--border-color);&quot;&gt;Sum &amp;amp; Average" style="rounded=1;whiteSpace=wrap;html=1;absoluteArcSize=1;arcSize=14;strokeWidth=2;" vertex="1" parent="1">
          <mxGeometry x="364" y="600" width="100" height="60" as="geometry" />
        </mxCell>
        <mxCell id="qE_79AIcoYg8Ee0vPHac-43" style="edgeStyle=orthogonalEdgeStyle;rounded=0;orthogonalLoop=1;jettySize=auto;html=1;entryX=0.5;entryY=0;entryDx=0;entryDy=0;entryPerimeter=0;exitX=0;exitY=0.5;exitDx=0;exitDy=0;" edge="1" parent="1" source="qE_79AIcoYg8Ee0vPHac-15" target="qE_79AIcoYg8Ee0vPHac-3">
          <mxGeometry relative="1" as="geometry">
            <Array as="points">
              <mxPoint x="260" y="295" />
            </Array>
          </mxGeometry>
        </mxCell>
        <mxCell id="qE_79AIcoYg8Ee0vPHac-45" style="edgeStyle=orthogonalEdgeStyle;rounded=0;orthogonalLoop=1;jettySize=auto;html=1;entryX=0;entryY=0.5;entryDx=0;entryDy=0;entryPerimeter=0;" edge="1" parent="1" source="qE_79AIcoYg8Ee0vPHac-3" target="qE_79AIcoYg8Ee0vPHac-5">
          <mxGeometry relative="1" as="geometry">
            <Array as="points">
              <mxPoint x="260" y="730" />
            </Array>
          </mxGeometry>
        </mxCell>
        <mxCell id="qE_79AIcoYg8Ee0vPHac-46" value="True" style="edgeLabel;html=1;align=center;verticalAlign=middle;resizable=0;points=[];" vertex="1" connectable="0" parent="qE_79AIcoYg8Ee0vPHac-45">
          <mxGeometry x="-0.3136" relative="1" as="geometry">
            <mxPoint as="offset" />
          </mxGeometry>
        </mxCell>
        <mxCell id="qE_79AIcoYg8Ee0vPHac-48" value="show&lt;br style=&quot;border-color: var(--border-color);&quot;&gt;error message" style="rounded=1;whiteSpace=wrap;html=1;absoluteArcSize=1;arcSize=14;strokeWidth=2;" vertex="1" parent="1">
          <mxGeometry x="520" y="375" width="100" height="70" as="geometry" />
        </mxCell>
      </root>
    </mxGraphModel>
  </diagram>
</mxfile>
